<?xml version="1.0" encoding="utf-8"?>
<!-- Generator: Adobe Illustrator 21.0.2, SVG Export Plug-In . SVG Version: 6.00 Build 0)  -->
<svg version="1.1" id="Layer_1" xmlns="http://www.w3.org/2000/svg" xmlns:xlink="http://www.w3.org/1999/xlink" x="0px" y="0px"
	 viewBox="0 0 73 73" style="enable-background:new 0 0 73 73;" xml:space="preserve">
<style type="text/css">
	.st0{fill:#FFF;}
</style>
<g id="CV_1_">
	<g id="text_lines">
		<rect x="16.7" y="29.5" class="st0" width="39.1" height="2.8"/>
		<rect x="16.7" y="35.1" class="st0" width="32.9" height="2.8"/>
		<rect x="16.7" y="43.4" class="st0" width="39.1" height="2.8"/>
		<rect x="16.7" y="49" class="st0" width="39.1" height="2.8"/>
		<rect x="16.7" y="54.6" class="st0" width="39.1" height="2.8"/>
		<rect x="16.7" y="60.1" class="st0" width="39.1" height="2.8"/>
	</g>
	<g id="CV">
		<path class="st0" d="M26.2,13.8c-0.2-0.3-0.4-0.5-0.7-0.7c-0.3-0.2-0.6-0.4-0.9-0.5c-0.3-0.1-0.7-0.2-1-0.2
			c-0.7,0-1.2,0.1-1.7,0.4c-0.5,0.3-0.8,0.6-1.1,1c-0.3,0.4-0.5,0.9-0.6,1.5c-0.1,0.6-0.2,1.1-0.2,1.7c0,0.6,0.1,1.1,0.2,1.7
			c0.1,0.5,0.3,1,0.6,1.4c0.3,0.4,0.7,0.8,1.1,1c0.5,0.3,1,0.4,1.7,0.4c0.9,0,1.6-0.3,2.1-0.8c0.5-0.6,0.8-1.3,0.9-2.2h2.9
			c-0.1,0.8-0.3,1.6-0.6,2.3c-0.3,0.7-0.7,1.3-1.2,1.7c-0.5,0.5-1.1,0.8-1.8,1.1c-0.7,0.3-1.5,0.4-2.3,0.4c-1,0-2-0.2-2.8-0.5
			c-0.8-0.4-1.5-0.9-2.1-1.5c-0.6-0.6-1-1.4-1.3-2.2c-0.3-0.9-0.5-1.8-0.5-2.8c0-1,0.2-1.9,0.5-2.8c0.3-0.9,0.7-1.6,1.3-2.3
			c0.6-0.6,1.3-1.1,2.1-1.5c0.8-0.4,1.8-0.5,2.8-0.5c0.7,0,1.4,0.1,2.1,0.3c0.7,0.2,1.3,0.5,1.8,0.9c0.5,0.4,1,0.9,1.3,1.5
			c0.3,0.6,0.6,1.3,0.6,2.1h-2.9C26.5,14.4,26.4,14.1,26.2,13.8z"/>
		<path class="st0" d="M34.5,23.7l-4.4-13.5h3l3,9.5h0l3-9.5h3.1l-4.5,13.5H34.5z"/>
	</g>
	<path id="document" class="st0" d="M51.6,0.4H47H15.6c-4.4,0-7.9,3.5-7.9,7.9v56.5c0,4.4,3.5,7.9,7.9,7.9h41.6
		c4.4,0,7.9-3.5,7.9-7.9V18.5v-4.6L51.6,0.4z M60.4,64.8c0,1.8-1.5,3.3-3.3,3.3H15.6c-1.8,0-3.3-1.5-3.3-3.3V8.3
		c0-1.8,1.5-3.3,3.3-3.3H47v5.6c0,4.4,3.5,7.9,7.9,7.9h5.6V64.8z"/>
</g>
</svg>
